<?xml version="1.0" encoding="utf-8"?>
<!DOCTYPE svg PUBLIC "-//W3C//DTD SVG 1.1//EN" "http://www.w3.org/Graphics/SVG/1.1/DTD/svg11.dtd">
<svg version="1.1" id="Ebene_1" xmlns="http://www.w3.org/2000/svg" xmlns:xlink="http://www.w3.org/1999/xlink" x="0px" y="0px"
	 width="612px" height="792px" viewBox="0 0 612 792" enable-background="new 0 0 612 792" xml:space="preserve">
<path d="M306,482.304c-13.508,0-24.48,36.144-24.48,80.64s10.972,80.64,24.48,80.64s24.48-36.144,24.48-80.64
	S319.508,482.304,306,482.304z"/>
<path d="M306,378.625c-44.496,0-80.64-64.543-80.64-144c0-47.43,12.879-89.546,32.726-115.792
	c-80.279,33.64-139.286,151.543-139.275,291.585c1.907-0.075,3.824-0.113,5.75-0.113c69.434,0,127.479,49.286,140.628,114.81
	c5.877-45.016,21.942-77.37,40.812-77.37s34.935,32.354,40.812,77.37c13.149-65.523,71.194-114.81,140.628-114.81
	c1.925,0,3.842,0.038,5.75,0.113c0.011-140.042-58.996-257.945-139.275-291.585c19.847,26.246,32.726,68.362,32.726,115.792
	C386.64,314.082,350.496,378.625,306,378.625z"/>
</svg>
