<?xml version="1.0" encoding="utf-8"?>
<!DOCTYPE svg PUBLIC "-//W3C//DTD SVG 1.1//EN" "http://www.w3.org/Graphics/SVG/1.1/DTD/svg11.dtd">
<svg version="1.1" id="Ebene_1" xmlns="http://www.w3.org/2000/svg" xmlns:xlink="http://www.w3.org/1999/xlink" x="0px" y="0px"
	 width="612px" height="792px" viewBox="0 0 612 792" enable-background="new 0 0 612 792" xml:space="preserve">
<path d="M306,367.67c-20.785,36-41.569,72-62.354,108c41.569,0,83.139,0,124.707,0C347.569,439.67,326.785,403.67,306,367.67z"/>
<path d="M414.003,487.057c53.692,31.078,107.385,62.155,161.077,93.232c-26.881-46.558-53.761-93.115-80.641-139.672
	c-6.234,3.6-12.471,7.2-18.705,10.8c-8.641-14.965-17.281-29.93-25.921-44.895c14.416-24.951,28.832-49.902,43.248-74.853
	c-28.816,0.009-57.632,0.019-86.447,0.027c-8.641-14.965-17.28-29.93-25.921-44.895c6.236-3.6,12.472-7.2,18.706-10.8
	c-26.88-46.558-53.76-93.115-80.64-139.673c0.067,62.038,0.136,124.075,0.204,186.112
	C350.644,377.314,382.323,432.186,414.003,487.057z"/>
<path d="M210.96,509.51c-53.76,30.96-107.52,61.92-161.28,92.88c53.76,0,107.52,0,161.28,0c0-7.2,0-14.4,0-21.6
	c17.28,0,34.56,0,51.84,0c14.4,24.96,28.8,49.92,43.2,74.88c14.4-24.96,28.801-49.92,43.2-74.88c17.28,0,34.561,0,51.84,0
	c0,7.199,0,14.399,0,21.6c53.761,0,107.521,0,161.28,0c-53.76-30.96-107.52-61.92-161.28-92.88
	C337.681,509.51,274.32,509.51,210.96,509.51z"/>
<path d="M293.037,322.442c0.068-62.037,0.136-124.075,0.204-186.112c-26.88,46.558-53.76,93.115-80.64,139.673
	c6.235,3.6,12.471,7.2,18.706,10.8c-8.64,14.965-17.28,29.93-25.92,44.895c-28.816-0.009-57.632-0.019-86.448-0.027
	c14.416,24.951,28.832,49.901,43.248,74.853c-8.64,14.965-17.28,29.93-25.92,44.895c-6.235-3.6-12.471-7.2-18.706-10.8
	c-26.88,46.557-53.76,93.114-80.64,139.672c53.692-31.077,107.384-62.154,161.077-93.232
	C229.677,432.186,261.357,377.314,293.037,322.442z"/>
</svg>
