<?xml version="1.0" encoding="utf-8"?>
<!DOCTYPE svg PUBLIC "-//W3C//DTD SVG 1.1//EN" "http://www.w3.org/Graphics/SVG/1.1/DTD/svg11.dtd">
<svg version="1.1" id="Ebene_1" xmlns="http://www.w3.org/2000/svg" xmlns:xlink="http://www.w3.org/1999/xlink" x="0px" y="0px"
	 width="612px" height="792px" viewBox="0 0 612 792" enable-background="new 0 0 612 792" xml:space="preserve">
<path d="M240.916,460.035c14.705-23.995,38.238-39.555,64.731-39.555c26.493,0,50.026,15.56,64.732,39.555
	c-11.575-48.107-36.235-81.315-64.732-81.315S252.49,411.928,240.916,460.035z"/>
<path d="M371.887,528.48c0-46.88-29.688-84.961-66.239-84.961c-36.55,0-66.24,38.081-66.24,84.961s29.69,84.96,66.24,84.96
	C342.198,613.44,371.887,575.36,371.887,528.48z"/>
<path d="M358.927,609.552c20.006-19.525,33.121-50.084,33.121-83.952c0-11.588-1.505-22.747-4.285-33.197
	c0.589-9.4,3.25-28.98-4.571-57.521c-7.841-28.612-26.049-49.065-37.224-60.48c16.884-4.23,31.705-17.801,41.76-35.136
	s21.771-44.842,25.704-91.584s-9.33-106.51-15.624-128.16c16.023,18.626,37.774,56.431,51.84,92.16s29.125,90.768,34.992,129.6
	s7.192,63.364,2.448,89.28c-18.397-10.784-29.635-2.845-34.705,0.72c-5.069,3.563-15.875,15.497-21.023,29.664
	c-5.149,14.168-7.116,34.908-4.607,50.256s8.45,19.404,13.736,19.318s14.734-3.056,33.927-25.799
	c19.192-22.742,33.29-50.058,38.448-63.792c5.159-13.733,13.378-35.264,18.864-60.768c5.28,45.612-3.479,89.604-14.688,119.521
	c-11.209,29.915-28.366,61.499-63.937,100.8c-35.571,39.301-72.885,63.322-111.456,72c5.475-7.296,10.908-19.469,13.536-30.24
	C357.811,631.469,359.003,618.912,358.927,609.552z"/>
<path d="M252.367,609.552c-19.603-19.544-33.12-50.482-33.12-83.952c0-12.974,1.885-25.41,5.336-36.916
	c-1.758-17.066-0.572-27.632,1.863-40.844c2.543-13.793,9.567-31.132,14.4-41.039c-31.618-10.073-47.384-29.641-56.304-51.121
	s-11.342-56.413-10.152-86.4c1.19-29.987,6.228-50.765,13.176-70.56c-18.854,22.164-38.934,56.625-47.88,77.76
	c-8.946,21.135-18.063,54.413-20.808,79.2s-3.154,47.65,5.328,74.88c18.672-11.401,29.921-2.845,34.992,0.72
	c5.07,3.563,15.452,16.412,21.384,32.4c5.932,15.987,6.417,32.534,3.816,47.52c-2.602,14.985-9.065,18.647-13.68,18.576
	c-4.615-0.07-14.288-2.313-33.48-25.057c-19.192-22.742-33.952-50.605-39.24-63.792c-5.288-13.186-12.422-32.479-16.992-57.888
	c-5.819,44.287-0.393,78.779,13.321,116.641c13.714,37.86,41.486,75.327,63.863,100.8c22.377,25.472,59.51,58.325,111.456,72
	c-6.249-11.845-9.219-19.575-12.384-31.392C254.099,629.272,253.261,618.848,252.367,609.552z"/>
</svg>
