<?xml version="1.0" encoding="utf-8"?>
<!DOCTYPE svg PUBLIC "-//W3C//DTD SVG 1.1//EN" "http://www.w3.org/Graphics/SVG/1.1/DTD/svg11.dtd">
<svg version="1.1" id="Ebene_1" xmlns="http://www.w3.org/2000/svg" xmlns:xlink="http://www.w3.org/1999/xlink" x="0px" y="0px"
	 width="612px" height="792px" viewBox="0 0 612 792" enable-background="new 0 0 612 792" xml:space="preserve">
<path d="M122.718,472.367C97.262,446.912,71.807,421.456,46.351,396c25.456-25.456,50.912-50.912,76.368-76.368
	c25.456,25.456,50.912,50.912,76.367,76.368C173.63,421.456,148.174,446.912,122.718,472.367z"/>
<path d="M214.359,564.009c-25.456-25.456-50.912-50.912-76.368-76.367c25.456-25.456,50.912-50.912,76.368-76.368
	c25.456,25.456,50.912,50.912,76.367,76.368C265.271,513.097,239.815,538.553,214.359,564.009z"/>
<path d="M306,655.649c-25.456-25.455-50.912-50.911-76.367-76.367c25.456-25.456,50.912-50.912,76.367-76.367
	c25.456,25.455,50.912,50.911,76.368,76.367C356.912,604.738,331.456,630.194,306,655.649z"/>
<path d="M397.642,564.009c-25.456-25.456-50.912-50.912-76.368-76.367c25.456-25.456,50.912-50.912,76.368-76.368
	c25.455,25.456,50.911,50.912,76.367,76.368C448.553,513.097,423.097,538.553,397.642,564.009z"/>
<path d="M489.282,472.368c-25.456-25.456-50.911-50.912-76.367-76.368c25.456-25.456,50.911-50.912,76.367-76.367
	c25.456,25.456,50.912,50.912,76.367,76.367C540.194,421.456,514.738,446.912,489.282,472.368z"/>
<path d="M306,472.368c-55.833-55.834-111.666-111.667-167.499-167.5C194.334,248.695,250.167,192.523,306,136.351
	c56.003,56.003,112.006,112.006,168.009,168.008C418.006,360.362,362.003,416.365,306,472.368z"/>
</svg>
