<?xml version="1.0" encoding="UTF-8" standalone="no"?><!DOCTYPE svg PUBLIC "-//W3C//DTD SVG 1.1//EN" "http://www.w3.org/Graphics/SVG/1.1/DTD/svg11.dtd"><svg width="100%" height="100%" viewBox="0 0 4096 4096" version="1.1" xmlns="http://www.w3.org/2000/svg" xmlns:xlink="http://www.w3.org/1999/xlink" xml:space="preserve" xmlns:serif="http://www.serif.com/" style="fill-rule:evenodd;clip-rule:evenodd;stroke-linejoin:round;stroke-miterlimit:2;"><path d="M778.433,2112.878c0,0 81.837,-171.605 356.694,-323.643c355.898,-196.866 481.889,-196.048 481.889,-196.048c0,0 -142.568,73.759 -192.396,378.148c-40.851,249.55 118.958,481.529 118.958,481.529c0,0 -189.716,-91.447 -390.491,-238.933c-122.135,-89.718 -374.653,-101.053 -374.653,-101.053Z"/><path d="M3300.89,2126.007c-530.748,14.121 -636.116,449.028 -1253.794,449.028c-285.629,0 -517.524,-231.895 -517.524,-517.524c0,-285.629 231.895,-517.524 517.524,-517.524c393.797,0 755.574,148.25 987.627,315.259c131.926,94.947 222.298,177.056 266.167,270.76Zm-1250.948,-388.92c-176.847,0 -320.424,143.577 -320.424,320.424c0,176.847 143.577,320.424 320.424,320.424c176.847,0 320.424,-143.577 320.424,-320.424c0,-176.847 -143.577,-320.424 -320.424,-320.424Zm0,119.724c110.769,0 200.7,89.931 200.7,200.7c0,110.769 -89.931,200.7 -200.7,200.7c-110.769,0 -200.7,-89.931 -200.7,-200.7c0,-110.769 89.931,-200.7 200.7,-200.7Z"/><path d="M2049.943,620.841c792.92,0 1436.67,643.75 1436.67,1436.67c0,792.92 -643.75,1436.67 -1436.67,1436.67c-792.92,0 -1436.67,-643.75 -1436.67,-1436.67c0,-792.92 643.75,-1436.67 1436.67,-1436.67Zm-0,137.013c-717.3,0 -1299.657,582.357 -1299.657,1299.657c0,717.3 582.357,1299.657 1299.657,1299.657c717.3,0 1299.657,-582.357 1299.657,-1299.657c0,-717.3 -582.357,-1299.657 -1299.657,-1299.657Z"/><path d="M527.659,2085.184l-42.212,25.539l-50.02,-32.393c0,0 -10.695,1.547 -15.692,0c-17.968,-5.561 -59.475,-32.331 -92.116,-33.369c-26.383,-0.839 -92.173,62.931 -207.342,62.931c-73.812,0 -116.39,-68.677 -116.39,-68.677c0,0 24.543,17.947 67.419,14.714c128.207,-9.67 157.945,-71.281 221.42,-68.564c31.771,1.36 138.289,56.885 138.289,56.885l54.166,-36.868l42.404,29.062c1.769,-118.857 17.186,-234.433 44.753,-345.228l-49.815,14.449l-39.931,-44.235c0,0 -10.731,-1.274 -15.158,-4.061c-15.916,-10.022 -49.08,-46.623 -80.341,-56.073c-25.267,-7.638 -105.32,36.93 -216.565,7.122c-71.297,-19.104 -94.65,-96.461 -94.65,-96.461c0,0 19.061,23.688 61.313,31.661c126.341,23.842 171.012,-27.973 231.621,-8.92c30.337,9.537 118.854,90.739 118.854,90.739l61.863,-21.593l35.126,41.02c32.226,-113.948 77.4,-222.484 133.827,-323.914l-54.794,1.124l-27.122,-53.063c0,0 -10.036,-4.008 -13.59,-7.846c-12.78,-13.8 -35.341,-57.737 -63.091,-74.956c-22.429,-13.918 -111.289,8.413 -211.029,-49.172c-63.923,-36.906 -66.458,-117.671 -66.458,-117.671c0,0 12.281,27.814 51.029,46.452c115.866,55.729 172.425,17.241 226.037,51.332c26.835,17.063 91.32,118.409 91.32,118.409l65.344,-4.846l24.651,51.509c60.555,-101.702 132.623,-195.765 214.4,-280.387l-55.853,-13.745l-12.464,-58.274c0,0 -8.656,-6.469 -11.096,-11.096c-8.773,-16.638 -19.193,-64.917 -41.541,-88.731c-18.063,-19.248 -109.675,-20.678 -191.112,-102.114c-52.193,-52.193 -33.738,-130.863 -33.738,-130.863c0,0 4.664,30.045 37.268,58.076c97.494,83.819 162.087,61.281 205.05,108.085c21.504,23.427 57.562,138.009 57.562,138.009l64.371,12.232l10.976,58.794c84.495,-82.801 178.588,-155.845 280.446,-217.299l-51.671,-28.436l3.043,-59.515c0,0 -6.687,-8.489 -7.846,-13.59c-4.168,-18.342 -1.738,-67.672 -17.16,-96.459c-12.465,-23.268 -100.586,-48.359 -158.17,-148.098c-36.906,-63.923 1.281,-135.136 1.281,-135.136c0,0 -3.272,30.228 20.967,65.743c72.478,106.196 140.704,101.144 170.088,157.473c14.708,28.195 19.881,148.205 19.881,148.205l59.012,28.475l-4.723,61.022c102.464,-58.185 212.325,-104.828 327.808,-138.154l-43.12,-41.387l18.343,-56.699c0,0 -4.262,-9.931 -4.061,-15.158c0.721,-18.795 15.836,-65.816 8.39,-97.614c-6.018,-25.701 -84.642,-72.745 -114.45,-183.989c-19.104,-71.297 36.213,-130.2 36.213,-130.2c0,0 -10.984,28.352 3.237,68.929c42.523,121.336 109.731,134.115 123.536,196.129c6.91,31.041 -19.155,148.3 -19.155,148.3l49.631,42.779l-20.629,58.495c113.124,-29.476 231.351,-46.255 353.066,-48.722l-31.337,-51.794l32.393,-50.02c0,0 -1.547,-10.695 0,-15.692c5.561,-17.968 32.331,-59.475 33.369,-92.116c0.839,-26.383 -62.931,-92.173 -62.931,-207.342c0,-73.812 68.677,-116.39 68.677,-116.39c0,0 -17.947,24.543 -14.714,67.419c9.67,128.207 71.281,157.945 68.564,221.42c-1.36,31.771 -56.885,138.289 -56.885,138.289l36.868,54.166l-35.475,51.759c121.857,0.561 240.352,15.468 353.879,43.118l-16.688,-57.536l44.235,-39.931c0,0 1.274,-10.731 4.061,-15.158c10.022,-15.916 46.623,-49.08 56.073,-80.341c7.638,-25.267 -36.93,-105.32 -7.122,-216.565c19.104,-71.297 96.461,-94.65 96.461,-94.65c0,0 -23.688,19.061 -31.661,61.313c-23.842,126.341 27.973,171.012 8.92,231.621c-9.537,30.337 -90.739,118.854 -90.739,118.854l21.593,61.863l-47.086,40.321c116.104,31.498 226.717,76.402 330.07,132.944l-1.212,-59.106l53.063,-27.122c0,0 4.008,-10.036 7.846,-13.59c13.8,-12.78 57.737,-35.341 74.956,-63.091c13.918,-22.429 -8.413,-111.289 49.172,-211.029c36.906,-63.923 117.671,-66.458 117.671,-66.458c0,0 -27.814,12.281 -46.452,51.029c-55.729,115.866 -17.241,172.425 -51.332,226.037c-17.063,26.835 -118.409,91.32 -118.409,91.32l4.846,65.344l-55.175,26.405c102.912,59.884 198.181,131.484 283.974,212.968l13.824,-56.176l58.274,-12.464c0,0 6.469,-8.656 11.096,-11.096c16.638,-8.773 64.917,-19.193 88.731,-41.541c19.248,-18.063 20.678,-109.675 102.114,-191.112c52.193,-52.193 130.863,-33.738 130.863,-33.738c0,0 -30.045,4.664 -58.076,37.268c-83.819,97.494 -61.281,162.087 -108.085,205.05c-23.427,21.504 -138.009,57.562 -138.009,57.562l-12.232,64.371l-58.702,10.959c83.204,83.436 156.796,176.461 218.966,277.266l26.677,-48.475l59.515,3.043c0,0 8.489,-6.687 13.59,-7.846c18.342,-4.168 67.672,-1.738 96.459,-17.16c23.268,-12.465 48.359,-100.586 148.098,-158.17c63.923,-36.906 135.136,1.281 135.136,1.281c0,0 -30.228,-3.272 -65.743,20.967c-106.196,72.478 -101.144,140.704 -157.473,170.088c-28.195,14.708 -148.205,19.881 -148.205,19.881l-28.475,59.012l-56.767,-4.394c58.106,100.687 105.02,208.631 139.038,322.125l36.249,-37.766l56.699,18.343c0,0 9.931,-4.262 15.158,-4.061c18.795,0.721 65.816,15.836 97.614,8.39c25.701,-6.018 72.745,-84.642 183.989,-114.45c71.297,-19.104 130.2,36.213 130.2,36.213c0,0 -28.352,-10.984 -68.929,3.237c-121.336,42.523 -134.115,109.731 -196.129,123.536c-31.041,6.91 -148.3,-19.155 -148.3,-19.155l-42.779,49.631l-50.769,-17.904c29.348,110.524 46.562,225.967 50.129,344.816l42.661,-25.811l50.02,32.393c0,0 10.695,-1.547 15.692,0c17.968,5.561 59.475,32.331 92.116,33.369c26.383,0.839 92.173,-62.931 207.342,-62.931c73.812,0 116.39,68.677 116.39,68.677c0,0 -24.543,-17.947 -67.419,-14.714c-128.207,9.67 -157.945,71.281 -221.42,68.564c-31.771,-1.36 -138.289,-56.885 -138.289,-56.885l-54.166,36.868l-42.238,-28.949c-0.317,118.196 -14.131,233.244 -39.981,343.682l44.877,-13.017l39.931,44.235c0,0 10.731,1.274 15.158,4.061c15.916,10.022 49.08,46.623 80.341,56.073c25.267,7.638 105.32,-36.93 216.565,-7.122c71.297,19.104 94.65,96.461 94.65,96.461c0,0 -19.061,-23.688 -61.313,-31.661c-126.341,-23.842 -171.012,27.973 -231.621,8.92c-30.337,-9.537 -118.854,-90.739 -118.854,-90.739l-61.863,21.593l-31.14,-36.364c-30.483,111.996 -73.444,218.874 -127.292,319.043l44.273,-0.908l27.122,53.063c0,0 10.036,4.008 13.59,7.846c12.78,13.8 35.341,57.737 63.091,74.956c22.429,13.918 111.289,-8.413 211.029,49.172c63.923,36.906 66.458,117.671 66.458,117.671c0,0 -12.281,-27.814 -51.029,-46.452c-115.866,-55.729 -172.425,-17.241 -226.037,-51.332c-26.835,-17.063 -91.32,-118.409 -91.32,-118.409l-65.344,4.846l-19.62,-40.998c-57.968,98.811 -126.761,190.519 -204.745,273.49l41.169,10.131l12.464,58.274c0,0 8.656,6.469 11.096,11.096c8.773,16.638 19.193,64.917 41.541,88.731c18.063,19.248 109.675,20.678 191.112,102.114c52.193,52.193 33.738,130.863 33.738,130.863c0,0 -4.664,-30.045 -37.268,-58.076c-97.494,-83.819 -162.087,-61.281 -205.05,-108.085c-21.504,-23.427 -57.562,-138.009 -57.562,-138.009l-64.371,-12.232l-7.975,-42.72c-80.735,79.551 -170.299,150.166 -267.08,210.232l35.305,19.429l-3.043,59.515c0,0 6.687,8.489 7.846,13.59c4.168,18.342 1.738,67.672 17.16,96.459c12.465,23.268 100.586,48.359 158.17,148.098c36.906,63.923 -1.281,135.136 -1.281,135.136c0,0 3.272,-30.228 -20.967,-65.743c-72.478,-106.196 -140.704,-101.144 -170.088,-157.473c-14.708,-28.195 -19.881,-148.205 -19.881,-148.205l-59.012,-28.475l3.183,-41.127c-97.526,55.231 -201.734,100.012 -311.1,132.817l27.952,26.829l-18.343,56.699c0,0 4.262,9.931 4.061,15.158c-0.721,18.795 -15.836,65.816 -8.39,97.614c6.018,25.701 84.642,72.745 114.45,183.989c19.104,71.297 -36.213,130.2 -36.213,130.2c0,0 10.984,-28.352 -3.237,-68.929c-42.523,-121.336 -109.731,-134.115 -123.536,-196.129c-6.91,-31.041 19.155,-148.3 19.155,-148.3l-49.631,-42.779l13.25,-37.57c-107.358,27.396 -219.264,43.369 -334.342,46.547l19.992,33.044l-32.393,50.02c0,0 1.547,10.695 0,15.692c-5.561,17.968 -32.331,59.475 -33.369,92.116c-0.839,26.383 62.931,92.173 62.931,207.342c0,73.812 -68.677,116.39 -68.677,116.39c0,0 17.947,-24.543 14.714,-67.419c-9.67,-128.207 -71.281,-157.945 -68.564,-221.42c1.36,-31.771 56.885,-138.289 56.885,-138.289l-36.868,-54.166l22.515,-32.851c-115.184,-1.494 -227.301,-15.805 -334.988,-41.572l10.756,37.082l-44.235,39.931c0,0 -1.274,10.731 -4.061,15.158c-10.022,15.916 -46.623,49.08 -56.073,80.341c-7.638,25.267 36.93,105.32 7.122,216.565c-19.104,71.297 -96.461,94.65 -96.461,94.65c0,0 23.688,-19.061 31.661,-61.313c23.842,-126.341 -27.973,-171.012 -8.92,-231.621c9.537,-30.337 90.739,-118.854 90.739,-118.854l-21.593,-61.863l30.309,-25.955c-109.844,-31.164 -214.649,-74.361 -312.898,-128.073l0.818,39.869l-53.063,27.122c0,0 -4.008,10.036 -7.846,13.59c-13.8,12.78 -57.737,35.341 -74.956,63.091c-13.918,22.429 8.413,111.289 -49.172,211.029c-36.906,63.923 -117.671,66.458 -117.671,66.458c0,0 27.814,-12.281 46.452,-51.029c55.729,-115.866 17.241,-172.425 51.332,-226.037c17.063,-26.835 118.409,-91.32 118.409,-91.32l-4.846,-65.344l37.39,-17.894c-97.624,-58.595 -188.153,-127.82 -269.981,-206.071l-10.033,40.768l-58.274,12.464c0,0 -6.469,8.656 -11.096,11.096c-16.638,8.773 -64.917,19.193 -88.731,41.541c-19.248,18.063 -20.678,109.675 -102.114,191.112c-52.193,52.193 -130.863,33.738 -130.863,33.738c0,0 30.045,-4.664 58.076,-37.268c83.819,-97.494 61.281,-162.087 108.085,-205.05c23.427,-21.504 138.009,-57.562 138.009,-57.562l12.232,-64.371l42.907,-8.01c-79.181,-81.77 -149.286,-172.381 -208.683,-270.2l-21.165,38.459l-59.515,-3.043c0,0 -8.489,6.687 -13.59,7.846c-18.342,4.168 -67.672,1.738 -96.459,17.16c-23.268,12.465 -48.359,100.586 -148.098,158.17c-63.923,36.906 -135.136,-1.281 -135.136,-1.281c0,0 30.228,3.272 65.743,-20.967c106.196,-72.478 101.144,-140.704 157.473,-170.088c28.195,-14.708 148.205,-19.881 148.205,-19.881l28.475,-59.012l45.484,3.52c-55.335,-99.305 -99.878,-205.432 -132.039,-316.788l-31.965,33.303l-56.699,-18.343c0,0 -9.931,4.262 -15.158,4.061c-18.795,-0.721 -65.816,-15.836 -97.614,-8.39c-25.701,6.018 -72.745,84.642 -183.989,114.45c-71.297,19.104 -130.2,-36.213 -130.2,-36.213c0,0 28.352,10.984 68.929,-3.237c121.336,-42.523 134.115,-109.731 196.129,-123.536c31.041,-6.91 148.3,19.155 148.3,19.155l42.779,-49.631l45.373,16.001c-27.525,-109.979 -43.075,-224.682 -45.181,-342.641Zm1522.284,-1489.918c-807.035,0 -1462.245,655.21 -1462.245,1462.245c0,807.035 655.21,1462.245 1462.245,1462.245c807.035,0 1462.245,-655.21 1462.245,-1462.245c0,-807.035 -655.21,-1462.245 -1462.245,-1462.245Z"/></svg>