<?xml version="1.0" encoding="utf-8"?>
<!DOCTYPE svg PUBLIC "-//W3C//DTD SVG 1.1//EN" "http://www.w3.org/Graphics/SVG/1.1/DTD/svg11.dtd">
<svg version="1.1" id="Ebene_1" xmlns="http://www.w3.org/2000/svg" xmlns:xlink="http://www.w3.org/1999/xlink" x="0px" y="0px"
	 width="359" height="234" viewBox="126.66 304.28 358.69 234.27" xml:space="preserve">
<path d="M347.903,372.604c12.823-14.035,25.646-28.069,59.185-51.84c18.452,39.78,13.326,78.526-8.64,104.975
	c16.426-1.691,26.902-1.95,38.88-5.183c11.978-3.233,31.348-19.526,38.016-24.625c-15.466,29.712-40.699,59.739-61.344,73.44
	c6.447-0.769,10.898-2.407,16.416-5.184c-55.316,61.72-86.989,55.81-104.544,44.063c-6.082,6.953-13.035,14.878-19.872,20.305
	c-6.837-5.427-13.79-13.352-19.872-20.305c-17.555,11.746-49.228,17.656-104.544-44.063c5.517,2.776,9.969,4.415,16.416,5.184
	c-20.645-13.701-45.878-43.728-61.344-73.44c6.669,5.098,26.039,21.391,38.016,24.625c11.978,3.232,22.454,3.491,38.88,5.183
	c-21.966-26.449-27.092-65.195-8.64-104.975c33.539,23.771,46.361,37.805,59.184,51.84c4.41-11.491,24.3-43.551,41.904-58.32
	C323.604,329.053,343.494,361.113,347.903,372.604z"/>
<path fill="#649128" d="M306,325.084c41.331,44.872,66.176,97.404,0,141.696C239.825,422.488,264.668,369.956,306,325.084z"/>
<path fill="#649128" d="M306,518.188c11.174-10.583,20.056-20.611,20.139-27.215c0.084-6.602-11.928-13.271-20.139-16.417
	c-8.21,3.146-20.222,9.815-20.139,16.417C285.945,497.577,294.826,507.605,306,518.188z"/>
<path fill="#649128" d="M208.368,333.724c10.074,6.229,38.609,29.844,52.704,47.52c-9.924,36.729,1.164,59.554,26.784,81.216
	C219.419,443.83,186.092,392.664,208.368,333.724z"/>
<path fill="#649128" d="M164.304,425.308c15.166,7.448,39.128,6.88,57.456,9.504c11.303,12.082,40.847,30.411,73.008,36.288
	C229.43,498.311,196.368,461.697,164.304,425.308z"/>
<path fill="#649128" d="M222.192,482.98c19.444,7.315,42.146,6.175,57.456,1.512c-2.021,3.737-2.535,11.594,1.944,17.28
	c-22.129,16.114-49.053-0.754-72.36-21.169C213.879,482.081,215.373,482.419,222.192,482.98z"/>
<path fill="#649128" d="M403.632,333.724c-10.074,6.229-38.609,29.844-52.704,47.52c9.925,36.729-1.163,59.554-26.784,81.216
	C392.581,443.83,425.907,392.664,403.632,333.724z"/>
<path fill="#649128" d="M447.695,425.308c-15.165,7.448-39.127,6.88-57.455,9.504c-11.304,12.082-40.847,30.411-73.009,36.288
	C382.57,498.311,415.632,461.697,447.695,425.308z"/>
<path fill="#649128" d="M389.808,482.98c-19.443,7.315-42.146,6.175-57.455,1.512c2.021,3.737,2.534,11.594-1.944,17.28
	c22.129,16.114,49.053-0.754,72.36-21.169C398.121,482.081,396.627,482.419,389.808,482.98z"/>
</svg>
