<?xml version="1.0" encoding="utf-8"?>
<!-- Generator: Adobe Illustrator 23.0.4, SVG Export Plug-In . SVG Version: 6.00 Build 0)  -->
<svg version="1.1" id="Layer_1" xmlns="http://www.w3.org/2000/svg" xmlns:xlink="http://www.w3.org/1999/xlink" x="0px" y="0px"
	 viewBox="0 0 38.8 49.3" style="enable-background:new 0 0 38.8 49.3;" xml:space="preserve">
<style type="text/css">
	.st0{fill:#931B2C;}
</style>
<title>061</title>
<path class="st0" d="M0,9.3l3.7,20.5c0.7,2.2,1.7,4.4,2.9,6.4c0.1,0.2,0.3,0.5,0.4,0.7c0.3,0.5,0.6,1,1,1.5c0.5,0.8,1.1,1.6,1.8,2.4
	c0.2,0.3,0.4,0.5,0.7,0.8c1,1.1,2,2.2,3.1,3.2c1.8,1.7,3.8,3.2,5.9,4.4c2.1-1.2,4.1-2.7,5.9-4.4c1.1-1,2.1-2.1,3-3.2l0.7-0.8
	c0.6-0.8,1.2-1.6,1.8-2.4c0.4-0.5,0.7-1,1-1.5c0.1-0.2,0.3-0.5,0.4-0.7c1.2-2,2.2-4.2,2.9-6.4l3.7-20.5L19.4,0L0,9.3z M31.8,24.7
	L25,30.3l-1,1.2l0,0L19.4,37L14,30.1l-7-5.4l6.8-5.6l1-1.3l4.6-5.5l5.3,7.1L31.8,24.7z"/>
<polygon class="st0" points="17.6,21.8 16.6,21.8 16.6,21.8 16.6,27.5 16.6,27.5 21.4,27.5 21.4,27.5 22.2,27.5 22.2,27.5 
	22.2,21.8 22.2,21.8 "/>
</svg>
